<mxfile host="app.diagrams.net" modified="2021-12-04T23:44:40.791Z" agent="5.0 (Windows NT 10.0; Win64; x64) AppleWebKit/537.36 (KHTML, like Gecko) Chrome/96.0.4664.45 Safari/537.36" etag="4l9Ct-rv4Y7mOTMkNChH" version="15.9.1" type="github">
  <diagram id="IwseWPJRoul7po6pOYb_" name="Page-1">
    <mxGraphModel dx="1213" dy="683" grid="1" gridSize="10" guides="1" tooltips="1" connect="1" arrows="1" fold="1" page="1" pageScale="1" pageWidth="850" pageHeight="1100" math="0" shadow="0">
      <root>
        <mxCell id="0" />
        <mxCell id="1" parent="0" />
        <mxCell id="_gc7C5WKzzAW6cKkf29i-2" value="KABBALAH" style="swimlane;childLayout=stackLayout;resizeParent=1;resizeParentMax=0;startSize=20;" vertex="1" parent="1">
          <mxGeometry x="240" width="360" height="770" as="geometry" />
        </mxCell>
        <mxCell id="_gc7C5WKzzAW6cKkf29i-3" value="MASC" style="swimlane;startSize=20;" vertex="1" parent="_gc7C5WKzzAW6cKkf29i-2">
          <mxGeometry y="20" width="120" height="750" as="geometry" />
        </mxCell>
        <mxCell id="_gc7C5WKzzAW6cKkf29i-1" value="" style="ellipse;whiteSpace=wrap;html=1;" vertex="1" parent="_gc7C5WKzzAW6cKkf29i-3">
          <mxGeometry x="35" y="140" width="50" height="50" as="geometry" />
        </mxCell>
        <mxCell id="_gc7C5WKzzAW6cKkf29i-4" value="NON BIN" style="swimlane;startSize=20;" vertex="1" parent="_gc7C5WKzzAW6cKkf29i-2">
          <mxGeometry x="120" y="20" width="120" height="750" as="geometry" />
        </mxCell>
        <mxCell id="_gc7C5WKzzAW6cKkf29i-7" value="" style="ellipse;whiteSpace=wrap;html=1;" vertex="1" parent="_gc7C5WKzzAW6cKkf29i-4">
          <mxGeometry x="35" y="90" width="50" height="50" as="geometry" />
        </mxCell>
        <mxCell id="_gc7C5WKzzAW6cKkf29i-9" value="" style="ellipse;whiteSpace=wrap;html=1;" vertex="1" parent="_gc7C5WKzzAW6cKkf29i-4">
          <mxGeometry x="35" y="210" width="50" height="50" as="geometry" />
        </mxCell>
        <mxCell id="_gc7C5WKzzAW6cKkf29i-17" value="" style="ellipse;whiteSpace=wrap;html=1;" vertex="1" parent="_gc7C5WKzzAW6cKkf29i-4">
          <mxGeometry x="35" y="570" width="50" height="50" as="geometry" />
        </mxCell>
        <mxCell id="_gc7C5WKzzAW6cKkf29i-5" value="FEM" style="swimlane;startSize=20;" vertex="1" parent="_gc7C5WKzzAW6cKkf29i-2">
          <mxGeometry x="240" y="20" width="120" height="750" as="geometry" />
        </mxCell>
        <mxCell id="_gc7C5WKzzAW6cKkf29i-6" value="" style="ellipse;whiteSpace=wrap;html=1;" vertex="1" parent="_gc7C5WKzzAW6cKkf29i-5">
          <mxGeometry x="35" y="140" width="50" height="50" as="geometry" />
        </mxCell>
        <mxCell id="_gc7C5WKzzAW6cKkf29i-11" value="" style="ellipse;whiteSpace=wrap;html=1;" vertex="1" parent="_gc7C5WKzzAW6cKkf29i-5">
          <mxGeometry x="-205" y="260" width="50" height="50" as="geometry" />
        </mxCell>
        <mxCell id="_gc7C5WKzzAW6cKkf29i-12" value="" style="ellipse;whiteSpace=wrap;html=1;" vertex="1" parent="_gc7C5WKzzAW6cKkf29i-5">
          <mxGeometry x="-85" y="330" width="50" height="50" as="geometry" />
        </mxCell>
        <mxCell id="_gc7C5WKzzAW6cKkf29i-13" value="" style="ellipse;whiteSpace=wrap;html=1;" vertex="1" parent="_gc7C5WKzzAW6cKkf29i-5">
          <mxGeometry x="35" y="260" width="50" height="50" as="geometry" />
        </mxCell>
        <mxCell id="_gc7C5WKzzAW6cKkf29i-14" value="" style="ellipse;whiteSpace=wrap;html=1;" vertex="1" parent="_gc7C5WKzzAW6cKkf29i-5">
          <mxGeometry x="-205" y="380" width="50" height="50" as="geometry" />
        </mxCell>
        <mxCell id="_gc7C5WKzzAW6cKkf29i-15" value="" style="ellipse;whiteSpace=wrap;html=1;" vertex="1" parent="_gc7C5WKzzAW6cKkf29i-5">
          <mxGeometry x="-85" y="450" width="50" height="50" as="geometry" />
        </mxCell>
        <mxCell id="_gc7C5WKzzAW6cKkf29i-16" value="" style="ellipse;whiteSpace=wrap;html=1;" vertex="1" parent="_gc7C5WKzzAW6cKkf29i-5">
          <mxGeometry x="35" y="380" width="50" height="50" as="geometry" />
        </mxCell>
      </root>
    </mxGraphModel>
  </diagram>
</mxfile>
